<?xml version="1.0" encoding="utf-8"?><svg viewBox="0 0 210 134" xmlns="http://www.w3.org/2000/svg" xmlns:xlink="http://www.w3.org/1999/xlink"><style>:root>svg{display:none}:root>svg:target{display:block}</style><svg fill="none" viewBox="0 0 18 16" id="balance" xmlns="http://www.w3.org/2000/svg"><path fill-rule="evenodd" clip-rule="evenodd" d="M17.473 5.495h-.208L15.138.325a.527.527 0 00-.685-.286l-3.646 1.418a2.231 2.231 0 00-1.28-.843 3.027 3.027 0 00-1.054 0C7.5.844 6.778 1.698 6.778 2.712c0 .103.008.205.023.304L3.156 4.433a.52.52 0 00-.294.286L.735 9.889H.527a.52.52 0 00-.527.513c0 1.495 1.25 2.71 2.787 2.71h1.13c1.536 0 2.786-1.215 2.786-2.71a.52.52 0 00-.527-.513h-.208l-1.93-4.694 3.155-1.227a2.23 2.23 0 001.28.843v8.13H7.87c-1.536 0-2.771 1.052-2.771 2.546a.52.52 0 00.527.513h6.778c.291 0 .528-.197.528-.351v-.162c0-1.494-1.266-2.547-2.802-2.547h-.603V4.81c.972-.23 1.695-1.083 1.695-2.098 0-.103-.008-.204-.022-.303l2.502-.973-1.67 4.06h-.208a.52.52 0 00-.527.512c0 1.494 1.25 2.71 2.787 2.71h1.13C16.75 8.718 18 7.502 18 6.008a.52.52 0 00-.527-.513zM2.787 12.086h1.13a1.73 1.73 0 001.65-1.17h-.003l-.002-.001H1.137a1.73 1.73 0 001.65 1.171zM1.87 9.89h2.961L3.352 6.29l-1.48 3.6zm4.364 5.085h5.56c-.223-.678-.894-1.008-1.665-1.008H7.87c-.771 0-1.411.33-1.635 1.008zM7.833 2.712c0 .626.523 1.135 1.167 1.135s1.167-.509 1.167-1.135S9.643 1.577 9 1.577c-.644 0-1.167.51-1.167 1.135zm8.296 2.783l-1.48-3.599-1.481 3.6h2.96zm-2.045 2.197h1.13a1.73 1.73 0 001.649-1.17l-.004-.001h-4.425a1.73 1.73 0 001.65 1.171z" fill="#000"/></svg><svg fill="none" viewBox="0 0 19 18" id="cart" xmlns="http://www.w3.org/2000/svg"><g clip-path="url(#bclip0_1_37)" fill-rule="evenodd" clip-rule="evenodd" fill="#000"><path d="M8.519 14.804c.878 0 1.59.716 1.59 1.6 0 .883-.712 1.599-1.59 1.599-.879 0-1.591-.716-1.591-1.6 0-.883.712-1.599 1.59-1.599zm-.337 1.6a.337.337 0 11.575.24.337.337 0 01-.575-.24zM15.943 14.804c.878 0 1.59.716 1.59 1.6 0 .883-.712 1.599-1.59 1.599-.879 0-1.591-.716-1.591-1.6 0-.883.712-1.599 1.59-1.599zm-.337 1.6a.337.337 0 11.575.24.337.337 0 01-.575-.24zM14.147 11.301a5.391 5.391 0 004.4-3.569c.847-2.002.358-2.949-.223-3.216l-6.285-.817-8.231-1.207-.769-.56A1.566 1.566 0 002.822.693 1.537 1.537 0 00.682.269 1.555 1.555 0 00.261 2.42c.441.661 1.307.881 2.007.504l.784.572 3.235 8.006c-.108.124-.2.265-.274.423-.561 1.195.32 2.55 1.627 2.55h9.823a.629.629 0 00.627-.63c0-.348-.28-.63-.627-.63H7.64c-.2 0-.361-.086-.467-.255a.52.52 0 01.317-.783l6.657-.876zM12.355 5.03l-3.419-.513.62 2.15 3.153.088-.142-.821s-.122-.574-.212-.904zM1.784 1.392c-.139-.208-.477-.156-.528.107a.292.292 0 00.449.301.3.3 0 00.079-.408zm6.991 9.352c.211-.03.422-.059.63-.086L8.61 7.895l-2.456-.068 1.25 3.092c.452-.046.913-.11 1.37-.175h.001zm1.146-2.812l.738 2.561 2.637-.347-.369-2.13-3.006-.084zM5.64 6.556l2.604.073-.667-2.313-3.022-.443L5.64 6.556zm8.11-1.387l.204 1.585s2.168.142 2.887.142c.355-.446.754-1.369-.096-1.446-.25-.023-.558-.048-.882-.075-.778-.063-1.659-.135-2.113-.206zm.781 4.778l-.385-1.931 2.792.055c-.551.83-1.422 1.61-2.407 1.876z"/></g><defs><clipPath id="bclip0_1_37"><path fill="#fff" d="M0 0h19v18H0z"/></clipPath></defs></svg><svg fill="none" viewBox="0 0 210 134" id="logo" xmlns="http://www.w3.org/2000/svg"><path d="M39.65 120.614V130h1.664v-8.489h.013L43.108 130h1.274l1.781-8.502h.013V130h1.664v-9.386h-2.847l-1.248 6.097-1.248-6.097H39.65zM48.561 130h1.911l.56-2.444h2.014l.442 2.444h1.924l-2.08-9.386H50.94L48.561 130zm2.691-3.835l.858-4.368.715 4.368h-1.573zm4.902-5.551V130h1.78v-7.956h3.147v-1.43h-4.927zM60.749 130h1.91l.56-2.444h2.015l.442 2.444H67.6l-2.08-9.386h-2.392L60.748 130zm2.69-3.835l.859-4.368.715 4.368H63.44zm6.501-2.847c0-.845.364-1.443 1.066-1.443.754 0 .988.689.988 1.313 0 .832-.507 1.196-1.17 1.196h-.377v1.339h.377c.741 0 1.3.403 1.3 1.508 0 .975-.312 1.56-1.17 1.56-.897 0-1.157-.637-1.157-1.287h-1.729c0 2.015 1.456 2.717 2.99 2.717 1.86 0 2.886-.936 2.886-2.821 0-1.417-.637-2.184-1.573-2.418.858-.221 1.443-1.066 1.443-2.041 0-1.898-1.547-2.496-2.808-2.496-1.768 0-2.795 1.235-2.795 2.873h1.73zm5.244-2.704V130h1.924l2.6-6.812h.013c-.182.845-.22 1.833-.22 3.263V130h1.663v-9.386H79.24l-2.6 6.825h-.013c.17-.78.221-2.197.221-3.315v-3.51h-1.664zm9.056 0h-1.781V130h1.78v-4.342h2.354V130h1.78v-9.386h-1.78v3.614H84.24v-3.614zm8.553 0V130h1.924l2.6-6.812h.013c-.182.845-.221 1.833-.221 3.263V130h1.664v-9.386h-1.924l-2.6 6.825h-.013c.169-.78.22-2.197.22-3.315v-3.51h-1.663zm9.055 0h-1.781V130h1.781v-4.342h2.353V130h1.781v-9.386h-1.781v3.614h-2.353v-3.614zm11.098 3.055v-.468c0-1.729-.988-2.756-2.808-2.756-1.937 0-2.925 1.027-2.925 3.224v3.419c0 1.664.559 3.133 2.899 3.133 2.223 0 2.834-1.456 2.834-3.159v-.403h-1.781v.507c0 1.209-.351 1.625-1.066 1.625-.754 0-1.066-.403-1.066-1.625v-3.705c0-1.183.325-1.586 1.079-1.586s1.053.403 1.053 1.586v.208h1.781zm4.813-1.625h2.21v-1.43h-6.201v1.43h2.21V130h1.781v-7.956zm4.871 4.134h1.56c1.521 0 2.496-1.274 2.496-2.821 0-1.508-.949-2.743-2.47-2.743h-3.367V130h1.781v-3.822zm0-4.173h.897c.897 0 1.339.494 1.339 1.378 0 .897-.442 1.404-1.339 1.404h-.897v-2.782zm4.745-1.391l2.574 7.423c-.182.533-.442.754-.793.754-.234 0-.39-.078-.494-.104v1.365c.312.104.663.169 1.079.169.871 0 1.43-.533 1.924-2.015l2.548-7.592h-1.95l-1.443 4.979-1.443-4.979h-2.002zm7.591 0V130h1.664v-8.489h.013l1.781 8.489h1.274l1.781-8.502h.013V130h1.664v-9.386h-2.847l-1.248 6.097-1.248-6.097h-2.847zm9.497 0V130h5.018v-1.43h-3.237v-2.912h2.951v-1.43h-2.951v-2.184h3.237v-1.43h-5.018zm7.912 0h-1.781V130h1.781v-4.342h2.353V130h1.781v-9.386h-1.781v3.614h-2.353v-3.614zm9.005 1.43h2.21v-1.43h-6.201v1.43h2.21V130h1.781v-7.956zm2.023 7.956h1.911l.559-2.444h2.015l.442 2.444h1.924l-2.08-9.386h-2.392L163.403 130zm2.691-3.835l.858-4.368.715 4.368h-1.573z" fill="#000"/><path fill="#FC0" d="M0 0h210v111H0z"/><path d="M71.891 42.727C76.323 39.285 80 41.66 84.906 47.34c.551.641 1.292-.11 1.715-.475.418-.37 6.892-6.199 7.21-6.465.314-.28.694-.803.195-1.387a172.37 172.37 0 01-3.529-4.517c-8.588-11.234 23.494-18.853 18.568-18.972-2.508-.066-12.569-.185-14.075-.019-6.094.641-13.746 6.337-17.598 8.992-5.04 3.448-6.921 5.472-7.23 5.752-1.425 1.245-.228 4.119-2.812 6.384-2.731 2.39-4.436.58-6.018 1.967-.784.693-2.978 2.337-3.605 2.883-.632.556-.746 1.492-.1 2.237 0 0 6.004 6.631 6.508 7.22.498.58 1.857 1.083 2.693.338.84-.742 3.002-2.627 3.363-2.96.37-.313-.238-4.09 1.7-5.59zm27.113 2.456c-.57-.66-1.278-.679-1.886-.138l-6.811 5.947a1.373 1.373 0 00-.128 1.9l39.396 44.836a2.525 2.525 0 003.568.252l4.607-3.862a2.565 2.565 0 00.247-3.6L99.004 45.182zm52.531-19.08c-.352-2.347-1.568-1.858-2.2-.865-.631 1.002-3.424 5.235-4.574 7.154-1.14 1.9-3.952 5.657-9.186 1.947-5.453-3.852-3.558-6.54-2.608-8.35.955-1.82 3.885-6.921 4.308-7.553.423-.641-.071-2.503-1.762-1.724-1.696.779-11.984 4.869-13.409 10.735-1.459 5.966 1.22 11.3-4.038 16.596l-6.379 6.65 6.408 7.439 7.856-7.458c1.872-1.88 5.871-3.71 9.491-2.883 7.756 1.753 11.989-1.159 14.539-5.975 2.29-4.304 1.91-13.367 1.554-15.714zM70.01 91.001a2.555 2.555 0 000 3.6l4.517 4.418c.989.992 2.556.575 3.544-.418l23.308-22.914-7.139-8.142-24.23 23.456z" fill="#000"/></svg><svg fill="none" viewBox="0 0 24 24" id="search" xmlns="http://www.w3.org/2000/svg"><path d="M21.054 18.56l-4.535-4.534a7.379 7.379 0 001.078-3.852c0-4.1-3.553-7.653-7.654-7.653A7.422 7.422 0 002.52 9.944c0 4.1 3.553 7.653 7.652 7.653a7.38 7.38 0 003.738-1.013l4.56 4.561a1.144 1.144 0 001.614 0l1.132-1.131c.445-.446.283-1.008-.162-1.454zM4.804 9.944a5.138 5.138 0 015.14-5.14c2.838 0 5.368 2.53 5.368 5.37a5.14 5.14 0 01-5.14 5.14c-2.839-.002-5.367-2.532-5.367-5.37z" fill="#000"/></svg><svg fill="none" viewBox="0 0 14 14" id="star" xmlns="http://www.w3.org/2000/svg"><g clip-path="url(#eclip0_1_35)"><path d="M3.252 8.961l-.74 4.53c-.058.36.326.63.644.454L7 11.821l3.844 2.125a.438.438 0 00.644-.454l-.74-4.53 3.127-3.205a.438.438 0 00-.247-.738l-4.303-.657-1.93-4.11c-.144-.306-.647-.306-.791 0L4.675 4.362l-4.303.657a.437.437 0 00-.247.738l3.127 3.205z" fill="#000"/></g><defs><clipPath id="eclip0_1_35"><path fill="#fff" d="M0 0h14v14H0z"/></clipPath></defs></svg></svg>